<?xml version="1.0" encoding="utf-8"?>
<!-- Generator: Adobe Illustrator 21.0.2, SVG Export Plug-In . SVG Version: 6.00 Build 0)  -->
<svg version="1.1" id="Слой_1" xmlns="http://www.w3.org/2000/svg" xmlns:xlink="http://www.w3.org/1999/xlink" x="0px" y="0px"
	 viewBox="0 0 804.5 270.4" style="enable-background:new 0 0 804.5 270.4;" xml:space="preserve">
<style type="text/css">
	.st0{fill-rule:evenodd;clip-rule:evenodd;fill:#4CB748;stroke:#414042;stroke-width:0.5669;stroke-miterlimit:22.9256;}
	.st1{fill-rule:evenodd;clip-rule:evenodd;fill:#EF3825;stroke:#414042;stroke-width:0.2835;stroke-miterlimit:22.9256;}
	.st2{fill-rule:evenodd;clip-rule:evenodd;fill:#4CB748;stroke:#414042;stroke-width:0.2835;stroke-miterlimit:22.9256;}
	.st3{fill-rule:evenodd;clip-rule:evenodd;fill:#58595B;}
	.st4{fill-rule:evenodd;clip-rule:evenodd;fill:#EF3825;stroke:#1E2225;stroke-width:0.216;stroke-miterlimit:22.9256;}
</style>
<path class="st0" d="M301.6,18.4c1.1,0,2.1,0.3,2.8,1c0.7,0.7,2.3,2.2,4.7,4.6c4,3.7,9.7,8.5,17,14.4c7.7,6.1,13.6,12.3,17.8,18.4
	c4.2,6.1,6.2,13.6,6.2,22.6c0,7.6-1.5,14.3-4.6,20.1c-3,5.8-6.5,10.4-10.2,14c-3.7,3.6-11.3,10.4-22.7,20.4
	c-3.4,3.1-5.9,5.2-7.5,6.3c-1.6,1.1-3.1,1.7-4.5,1.7c-1.3,0-3-0.7-5.2-2.2c-2.2-1.4-6.6-4.7-13.1-9.8c-6.4-5-10.8-8.7-13.4-10.8
	c-2.5-2.1-5.3-5-8.3-8.7c-3-3.7-5.5-7.9-7.3-12.6c-1.8-4.7-2.7-10-2.7-15.9c0-19,11.7-36.9,35.1-53.7c3.5-2.5,6-4.5,7.7-6.1
	C296.1,19.7,298.8,18.4,301.6,18.4L301.6,18.4z M289.8,40.1c-4.2,0.5-8,2-11.3,4.5c-3.3,2.5-5.9,5.5-7.7,9c-1.8,3.5-2.7,7-2.7,10.5
	c0,2.6,0.6,5.3,1.8,8.1c1.2,2.8,2.9,5.7,5.1,8.8c2.3,3.1,5,6.3,8.2,9.5c3.2,3.2,7.2,7.1,12,11.4c5.8,5.2,9.6,9,11.4,11.2
	c1.8,2.2,2.8,4.7,3.1,7.6c5.2-1.8,10-4.9,14.5-9.1c4.5-4.3,7.1-8.8,7.9-13.5v-5.6c-0.4-2.2-1.3-4.5-2.7-6.9c-1.4-2.4-3.1-4.7-5.1-7
	c-1.9-2.3-4.2-4.8-6.8-7.5c-2.6-2.7-5.7-5.8-9.2-9.4c-3.2-3.3-5.9-6-8.2-8.3c-2.2-2.2-4-4.1-5.3-5.6c-1.3-1.5-2.3-2.8-3-4
	C291.1,42.8,290.4,41.5,289.8,40.1L289.8,40.1z M362.3,40.2h54.4c4.9,0,8-0.1,9.4-0.3c1.4-0.2,2.2-0.5,2.3-0.9
	c0.1-0.4,0.8-0.7,1.9-0.9c1.1-0.2,4.1-0.3,8.8-0.3c1.6,0,2.8,0.5,3.7,1.5c0.9,1,1.3,2.3,1.3,3.9c0,0.6-0.1,1.2-0.4,2
	c-0.3,0.8-0.7,1.7-1.2,2.9c-0.6,1.2-1,2.2-1.3,3c-1.4,3.3-2.2,6.6-2.6,10c-0.4,3.2-0.8,5.6-1.2,6.9c-0.5,1.4-1.6,2.1-3.5,2.1
	c-1.6,0-2.6-0.4-3.2-1.3c-0.5-0.9-1.1-2.4-1.7-4.5c-1.6-5.3-3.5-9.3-5.7-12c-2.2-2.7-4.5-4.4-6.9-5.1c-2.4-0.8-5.2-1.1-8.3-1.1h-3.8
	h-5.8v34.9c3.4,2.9,8.3,5.5,15,7.7c6.6,2.2,12.7,3.3,18.1,3.3c1,0,3.1-0.1,6.2-0.3c3.6,0,6.2,0.6,7.6,1.7c1.4,1.1,2.2,3.6,2.2,7.4
	v27.1c0,2.5-0.2,4.4-0.5,5.7c-0.4,1.3-1.2,2.3-2.6,3c-1.4,0.7-3.5,1.1-6.5,1.1h-75.7v-5.8h12.7V46h-12.7V40.2L362.3,40.2z
	 M398.6,131.6h18.7c2.5,0,4.3-0.6,5.3-1.8c1-1.2,1.5-3.7,1.5-7.5v-15.7c0-2.1-0.3-3.6-1-4.5c-0.7-1-2.5-2.2-5.6-3.7
	c-5.3-2.7-9.2-4.7-11.6-6.2c-2.4-1.5-4.8-3.5-7.3-6V131.6L398.6,131.6z M593.6,100.3v31.3h12.7v5.8h-48.9v-5.8H570V80.7
	c0-7.3,0.2-14.3,0.5-21.2c3-6.7,7.8-11.9,14.5-15.7c6.7-3.8,14.1-5.7,22.3-5.7c8.1,0,15,1.2,20.8,3.7c5.8,2.5,10.2,5.8,13.2,10.1
	c3,4.2,4.5,9,4.5,14.1c0,5-1.1,9.6-3.4,13.7c-2.2,4.1-5.3,7.4-9.2,9.7c-3.9,2.3-8.3,3.5-13.2,3.5c-2.5,0-4.5-0.3-5.9-0.8
	c-1.4-0.5-3.7-1.5-6.6-2.8c-1.6-0.7-2.7-1.3-3.4-1.5L593.6,100.3L593.6,100.3z M593.6,92l9.8-11.3c0.9,0.7,2,1.2,3.1,1.7
	c1.1,0.4,2,0.7,2.5,0.7c2.4,0,4.7-1.2,6.8-3.7c2.1-2.4,3.2-7,3.2-13.7c0-6.7-0.9-12-2.7-15.9c-1.8-3.9-5.2-5.8-10.1-5.8
	c-3.7,0-6.5,1.2-8.3,3.6c-1.8,2.4-3,5.4-3.4,8.9c-0.5,3.5-0.7,8-0.7,13.3v3.4V92L593.6,92z M719.5,40.2h57.3
	c5.1,0,10.6-0.4,16.4-1.1c1.2-0.2,2.4-0.3,3.5-0.6c1.1-0.2,1.9-0.3,2.5-0.3c3.4,0,5,1.8,5,5.4c0,0.9-0.4,2.3-1.3,4.2
	c-0.9,1.9-1.4,3.2-1.6,3.8c-1.3,3.3-2.2,6.5-2.6,9.5c-0.3,3.2-0.8,5.5-1.2,6.9c-0.5,1.4-1.7,2.2-3.5,2.2c-1.5,0-2.6-0.4-3.1-1.3
	c-0.5-0.9-1.1-2.4-1.8-4.5c-1.5-5.3-3.5-9.3-5.7-11.9c-2.2-2.7-4.5-4.4-6.9-5.2c-2.4-0.8-5.2-1.1-8.3-1.1h-3.8h-8.7v85.6h12.7v5.8
	h-48.9v-5.8h12.7V46h-12.7V40.2L719.5,40.2z M548.5,109.1l-2,28.4h-87.6v-4.9c1.5-0.1,3.5-0.3,6-0.6c2.5-0.3,4.1-0.6,4.9-0.9
	c1.6-0.7,2.7-1.6,3.3-2.7c0.6-1.1,0.9-2.5,0.9-4.1V55.1c0-1.5-0.3-2.8-0.8-4c-0.6-1.2-1.7-2.1-3.5-2.8c-1.3-0.6-3.2-1.1-5.4-1.6
	c-2.3-0.4-4.1-0.7-5.4-0.8V41h81.7v23.2H535c-1-3.4-3.1-7.1-6.4-10.9c-3.3-3.9-6.4-6-9.4-6.3c-1.5-0.2-3.4-0.3-5.5-0.4
	c-2.1-0.1-4.5-0.1-7.3-0.1h-16.5v38.3h11.9c3.8,0,6.6-0.3,8.3-1c1.8-0.7,3.3-1.8,4.6-3.3c1.1-1.3,2-3.1,2.8-5.3
	c0.8-2.2,1.3-4.2,1.5-6.2h5.6v37.7H519c-0.2-2.2-0.7-4.5-1.6-6.9c-0.9-2.4-1.8-4.2-2.7-5.3c-1.5-1.8-3.3-2.9-5.2-3.5
	c-2-0.5-4.5-0.8-7.7-0.8h-11.9v28.9c0,2.9,0.2,5.2,0.7,6.8c0.5,1.7,1.3,2.9,2.6,3.8c1.3,0.9,3,1.4,5.3,1.7c2.2,0.3,5.4,0.4,9.5,0.4
	c1.6,0,3.8,0,6.5,0c2.7,0,4.9-0.1,6.8-0.3c1.9-0.2,3.8-0.5,5.8-1c2-0.5,3.4-1.1,4.3-1.9c2.3-2.2,4.7-5.5,7.2-9.9
	c2.5-4.4,4.1-7.7,4.8-9.7H548.5L548.5,109.1z M671.2,131.6V46h-12.6v-5.8h48.9V46h-12.7v85.6h12.7v5.8h-48.9v-5.8H671.2z"/>
<path class="st1" d="M0.8,0.4c18.6,14.8,40,19.2,63.2,17.4c4.8-0.4,9.6-0.9,14.3-1.6c2.2-0.3,3.6,0.3,5.1,1.7
	c13.7,12.6,20.8,28.7,25.1,46.4c1.6,6.6,2.5,13.2,2.9,20.4c-1.9-0.8-3.5-1.4-5.1-2c-14.9-6.1-29.8-5.1-44.8,0
	c-4.3,1.5-8.6,3.1-12.8,4.9c-2,0.9-3.5,0.7-5.3-0.3C31.5,80.9,23.4,71,17,59.5C6.9,41.6,2,22.1,0.2,1.8c0-0.1,0-0.3,0-0.4
	C0.1,1,0.3,0.7,0.8,0.4z"/>
<path class="st2" d="M233.3,0.2c-0.2,6-1,11.9-2.1,17.6c-3.3,17.9-9,34.9-19.6,50c-5.7,8.1-12.6,15-21.5,19.7
	c-1.6,0.8-2.9,0.9-4.6,0.2c-9.7-3.8-19.4-7.3-29.9-8.4c-9.9-1.1-19.4,0.3-28.6,4.1c-1.6,0.6-3.2,1.3-5,2c-0.2-4.2,0.3-8.1,0.9-12
	c2.5-16.5,7.7-31.9,17.8-45.4c2.9-3.9,6.1-7.5,9.9-10.5c1.3-1,2.4-0.7,3.7-0.5c12.6,1.4,25.2,2.4,37.9,0.6
	c14.2-2,27.1-7.3,38.5-15.9c0.4-0.3,0.9-0.6,1.4-0.9C232.5,0.5,232.8,0.4,233.3,0.2z"/>
<path class="st2" d="M40.3,131.6c1.6-6.6,3.2-13.2,4-19.9c0.5-4,2.4-6.7,5.4-9C68,88.7,88.5,85.9,110.6,91.4
	c1.8,0.4,2.4,1.3,2.4,3.1c0.3,19.3-2.8,38-10.3,55.9c-2.1,5.1-6.7,8-11.1,10.9c-15.1,10.3-32.1,15.5-49.9,18.8
	c-6.6,1.2-13.4,1.9-20.1,2.9c-1.2,0-9.9,0.5-10.5,0.5c-0.6-0.6-2.3,0.7-2.2-1.2C9.2,182,35.9,149.9,40.3,131.6z"/>
<path class="st1" d="M226.7,182.9c-8.2,0.1-15.4-0.4-22.6-1.2c-20.1-2.4-39.5-7-57.2-17.3c-3.8-2.2-7.3-4.9-10.7-7.7
	c-2.8-2.3-4.5-5.4-5.8-8.7c-6.5-16.9-9.8-34.4-9.6-52.5c0-1.9,0.4-2.9,2.5-3.4c23.1-5.9,44.4-3,63.3,12.6c1.6,1.3,2.4,2.8,2.7,4.8
	c1.8,10.1,3.8,20.2,7.1,30c5,14.8,14.2,26.8,24.8,37.9C222.8,179.2,224.5,180.7,226.7,182.9z"/>
<path class="st3" d="M306.7,174.5l2.1,1.5c-1.5,2.8-3.2,5.1-5.3,7.1c-2.1,2-3.7,3-5.1,3c-1,0-2.1-0.5-3.4-1.5c-1.3-1-2.5-2.4-3.7-4
	c-1.2-1.7-2.2-3.5-2.9-5.3c-0.7-1.9-1.1-3.6-1.1-5.2c0-2.2,0.6-4.5,1.9-6.8c1.2-2.4,2.7-4.3,4.4-5.9c1.7-1.6,3.1-2.4,4.2-2.4
	c0.3,0,1.1,0.2,2.3,0.6c1.2,0.4,2.4,0.9,3.6,1.4c1.2,0.6,2.3,1.2,3.2,1.8c0.9,0.6,1.3,1.2,1.3,1.7c0,0.4-0.6,1.1-1.8,2.3
	c-0.8,0.7-1.3,1.3-1.5,1.6c-0.2,0.3-0.5,0.7-0.7,1.1c-0.2,0.4-0.4,0.6-0.6,0.6c-0.2,0-0.7-0.4-1.4-1.3c-0.9-1-1.8-1.9-2.9-2.7
	c-1.1-0.8-2.7-1.3-4.7-1.7c-0.7,1.4-1.1,3.1-1.1,5.1c0,1.8,0.4,3.6,1.3,5.6c0.9,1.9,2.1,3.6,3.5,5.1c1.5,1.5,3,2.5,4.6,3.1
	c1-0.9,1.9-2,2.8-3.2c0.1-0.1,0.2-0.3,0.4-0.5C306.3,175,306.5,174.8,306.7,174.5L306.7,174.5z M349.8,167.9l-3.4-0.5
	c0.6-1.3,0.8-2.4,0.8-3.3c0-2.2-0.8-3.6-2.3-4.2c-1.5-0.6-3.3-0.9-5.3-0.9h-1.2c0,1,0,2,0,3.2c0,1.1,0,1.9,0,2.3
	c-0.1,1.7-0.1,3-0.1,4c0,2,0.1,4.6,0.1,8c0.1,3.4,0.2,5.5,0.3,6.3c0,0.6-0.1,1-0.4,1.3c-0.3,0.3-1,0.4-2.2,0.4h-3.8
	c-0.6,0-1.1-0.2-1.3-0.5c-0.2-0.3-0.4-0.9-0.5-1.7c-0.1-0.8-0.1-2.3-0.1-4.5c0-0.7,0-1.4,0-2c0-0.7,0-1.2,0-1.6v-2.5
	c0-2.2,0-4.4,0.1-6.7c0-0.2,0-0.8,0.1-1.9c0.1-1.1,0.1-2.5,0.1-4.1h-1.2c-5.1,0-7.6,1.7-7.6,5.2c0,0.5,0.3,1.6,0.8,3.3l-3.4,0.5
	c-0.9-2.4-2.1-4.8-3.7-6.9c-0.7-1-1.1-1.9-1.1-2.6c0-0.6,0.2-1.1,0.6-1.5c0.4-0.4,0.8-0.6,1.3-0.6c0.4,0,1.6,0.1,3.8,0.4
	c1.8,0.2,4.5,0.3,8.3,0.3h12c3.8,0,6.6-0.1,8.3-0.3c2.1-0.3,3.4-0.4,3.7-0.4c0.5,0,0.9,0.2,1.3,0.6c0.4,0.4,0.6,0.9,0.6,1.5
	c0,0.8-0.4,1.6-1.1,2.6c-0.9,1.3-1.7,2.4-2.2,3.3C350.8,165.2,350.3,166.4,349.8,167.9L349.8,167.9z M367.3,179.9
	c0,0.2,0.1,0.8,0.3,2c0.4,2.7,0.6,5.8,0.6,9.4c0,2.9-0.4,5-1.1,6.1c-0.7,1.1-1.7,1.7-3,1.7c-0.9,0-1.4-0.2-1.5-0.6v-0.4
	c0-0.7,0.1-2.3,0.1-4.8c0-2.6-0.1-5.2-0.3-7.8c-0.2-1.6-0.4-3.4-0.6-5.5c-0.2-2.1-0.4-3.7-0.5-4.7c-0.1-1.1-0.1-2.2-0.1-3.5
	c0-3.2,0.7-6.1,2.2-8.7c1.5-2.6,3.2-4.6,5.2-6c2-1.5,3.6-2.2,4.7-2.2c1,0,2.2,0.5,3.5,1.5c1.3,1,2.6,2.3,3.8,4
	c1.2,1.7,2.2,3.7,3,5.9c0.8,2.2,1.2,4.5,1.2,6.9c0,2.3-0.4,4.3-1.2,6.1c-0.8,1.8-1.9,3.2-3.2,4.2c-1.4,1-2.9,1.5-4.6,1.5
	c-1.6,0-3.2-0.5-4.8-1.5C369.4,182.5,368.1,181.3,367.3,179.9L367.3,179.9z M369.1,160.4c-1,1.4-1.7,2.7-2.1,4.1
	c-0.4,1.4-0.6,3-0.6,5c0,2.3,0.5,4.4,1.3,6.2c0.9,1.8,2,3.2,3.3,4.2c1.3,1,2.4,1.5,3.5,1.5c0.8,0,1.5-0.3,2.2-1
	c0.7-0.7,1.1-1.8,1.3-3.5v-2.2c-0.1-1.5-0.6-3.2-1.4-5.2c-0.8-2-1.9-3.9-3.2-5.5C372.1,162.3,370.7,161.1,369.1,160.4L369.1,160.4z
	 M406.1,157h6.6c0.4,0,0.7,0.1,0.8,0.4c0,0.2,0,0.4,0.1,0.7c0,0.2,0.1,0.5,0.1,0.8c0.1,0.3,0.2,0.7,0.3,1.2c0.2,0.5,0.3,1.1,0.5,1.6
	c0.2,0.5,0.3,1.1,0.5,1.8c0.1,0.4,0.3,1,0.5,1.8c1.3,4.8,2.4,8.4,3.3,10.8c0.9,2.4,1.6,4.2,2.2,5.4c0.6,1.2,0.8,1.9,0.8,2.2
	c0,0.4-0.4,0.5-1.3,0.5h-6.6c-0.3,0-0.6-0.3-0.7-0.9c-0.1-0.6-0.4-1.6-0.8-3c-0.2-0.5-0.4-1.2-0.8-2.2c-0.2-0.8-0.5-1.7-0.9-2.6
	c-2.1,6.3-5.5,9.5-10.2,9.5c-1.7,0-3.1-0.4-4.1-1.2c-1-0.8-1.8-1.8-2.2-3c-0.4-1.2-0.6-2.3-0.6-3.4c0-1,0.3-2.1,0.8-3.3
	c0.5-1.2,1.3-2.3,2.2-3.5c0.9-1.2,1.6-2,2.2-2.7c0.6-0.6,1.6-1.6,2.8-2.9c0.6-0.6,1.2-1.3,2-1.9c0.7-0.7,1.2-1.2,1.5-1.5
	c0.3-0.3,0.4-0.6,0.4-0.9c0-0.5-0.2-1.1-0.5-2c-0.1-0.4-0.2-0.8-0.2-1.2C404.8,157.1,405.2,157,406.1,157L406.1,157z M406.6,162.7
	c-2.5,2.4-4.2,4.6-5.1,6.4c-0.9,1.9-1.4,3.3-1.4,4.3c0,1,0.3,1.9,0.9,2.7c0.6,0.8,1.6,1.2,2.9,1.2c1.1,0,2.1-0.3,3-0.8
	c0.8-0.5,1.5-1.1,1.9-1.9c0.4-0.7,0.6-1.4,0.6-2.1c0-0.7-0.3-2.1-1-4.3c-0.4-1.2-0.7-2.1-0.8-2.6C407.4,164.8,407,163.7,406.6,162.7
	L406.6,162.7z M428.5,156.9h4.2c0.3,0,0.6,0,0.9-0.1c0.3-0.1,0.6-0.1,0.7-0.1c0.3,0,0.6,0.1,0.8,0.4c0.2,0.2,0.6,1.1,1.3,2.6
	c1.4,3.3,2.7,6,3.7,8.2c0.5,1,0.9,1.8,1.2,2.4c1.2-3.8,2.3-6.7,3.3-8.7c1-2,1.9-3.4,2.9-4.2c1-0.8,2.2-1.2,3.5-1.2
	c0.9,0,1.9,0.2,2.9,0.7c1,0.4,1.5,0.8,1.5,1.2c0,0.6-0.1,1-0.4,1.3c-0.3,0.3-0.5,0.6-0.7,1c-0.2,0.4-0.3,1.2-0.4,2.7
	c0,0.9,0,1.7,0.1,2.4l-1.2,0.7c-1.1-1.1-2.2-1.6-3.4-1.6c-0.9,0-1.6,0.3-2.3,0.8c-0.7,0.6-1.3,1.5-1.9,2.8c-0.6,1.3-1.4,3.1-2.2,5.3
	c0.8,1.8,1.6,3.5,2.4,5.2c1.2,2.5,2.3,4.6,3.2,6.3c0.9,1.7,1.6,3,2,3.8c1.7,3.2,3.1,5.5,4,6.8c0.6,0.8,0.8,1.4,0.8,2
	c0,0.6-0.3,0.8-0.8,0.8h-6c-0.7,0-1.2-0.2-1.5-0.7c-0.3-0.5-0.7-1.2-1.2-2.2c-0.3-0.8-1.1-2.4-2.3-4.6c-0.2-0.5-0.7-1.4-1.3-2.5
	c-0.6-1.2-1.2-2.3-1.7-3.4c-0.9-1.8-1.5-3.1-1.9-4c-1.3,4.2-2.5,7.5-3.5,9.9c-1,2.4-1.9,4.2-2.6,5.3c-0.7,1.1-1.3,1.7-1.8,2
	c-0.5,0.2-1,0.4-1.6,0.4c-1.6,0-2.4-0.4-2.4-1.4c0-0.4,0.5-1.2,1.4-2.5c1.5-1.9,3.2-4.6,5-8.2c1.8-3.6,3-6.7,3.8-9.3
	c-0.7-1.4-1.3-2.7-1.9-4c-0.7-1.2-1.3-2.4-1.8-3.6c-0.4-0.8-0.9-1.7-1.4-2.6c-0.5-0.9-0.7-1.4-0.8-1.5c-0.4-0.8-1-2-1.8-3.4
	c-0.4-0.8-0.8-1.5-1.2-2.2c-0.4-0.7-0.6-1.1-0.7-1.2c-0.1-0.2-0.1-0.4-0.1-0.5c0-0.5,0.1-0.9,0.3-1C427.7,157,428,156.9,428.5,156.9
	L428.5,156.9z M461.4,172.2c0-3,0.7-5.9,2.1-8.6c1.4-2.7,3.1-4.8,5-6.4c1.9-1.6,3.4-2.4,4.5-2.4c0.8,0,1.9,0.3,3.2,0.9
	c1.3,0.6,2.7,1.5,4,2.6c1.3,1.2,2.5,2.6,3.4,4.4c0.9,1.8,1.4,3.8,1.4,6.1c0,1.8-0.4,3.6-1.2,5.6c-0.8,2-1.8,3.9-3,5.7
	c-1.2,1.8-2.5,3.2-3.9,4.3c-1.4,1.1-2.6,1.6-3.6,1.6c-1.4,0-3.1-0.7-5-2.2c-1.9-1.4-3.5-3.3-4.9-5.4
	C462.1,176.3,461.4,174.2,461.4,172.2L461.4,172.2z M468,161.4c-1.3,1.5-2,3.1-2,4.7c0,1.6,0.5,3.4,1.3,5.4c0.9,2,2.3,3.7,4.2,5.2
	c1.9,1.5,4.3,2.2,7,2.2c0.7-1.3,1.1-2.7,1.1-4.3c0-2.1-0.5-4.1-1.4-6.1c-1-1.9-2.3-3.5-4.1-4.8C472.4,162.4,470.3,161.6,468,161.4
	L468,161.4z M496.5,157H512c2.2,0,3.8,0.2,4.7,0.6c0.9,0.4,1.4,1.3,1.4,2.7c0,2.2-1,3.9-3,5.1c-2,1.2-4.9,2.4-8.5,3.4v0.3
	c3.6,0.8,7,2.1,10.2,3.8c3.1,1.8,4.7,4.2,4.7,7.3c0,1.2-0.2,2-0.8,2.6c-0.5,0.6-1.1,0.9-1.9,1.1c-0.8,0.1-1.8,0.2-3.1,0.2h-19.8
	c-0.6,0-1-0.1-1.3-0.4c-0.3-0.3-0.5-0.9-0.6-1.8c-0.1-0.9-0.2-2.3-0.2-4.2c0-1.5,0-2.7,0.1-3.6c0.1-5,0.2-8.4,0.3-10.3
	c0.1-1.9,0.2-3.3,0.4-4.3c0.2-1,0.4-1.7,0.7-2C495.4,157.1,495.9,157,496.5,157L496.5,157z M501.7,167.7c1.6,0,3-0.3,4.3-1
	c1.2-0.7,2.1-1.5,2.8-2.5c0.6-1,0.9-2,0.9-2.9c0-0.9-0.3-1.5-1-1.9c-0.7-0.3-1.7-0.5-3.1-0.5c-0.6,0-1.7,0-3.3,0.1
	C501.9,161.7,501.7,164.6,501.7,167.7L501.7,167.7z M501.8,182c0,0,0.5,0,1.6,0.1c1,0,1.9,0.1,2.5,0.1c1.6,0,2.8-0.1,3.6-0.2
	c0.8-0.1,1.4-0.4,1.9-0.9c0.4-0.5,0.7-1.3,0.7-2.3c0-1.1-0.4-2.4-1.2-3.8c-0.8-1.4-2-2.5-3.5-3.5c-1.6-1-3.4-1.5-5.5-1.5
	c0,0,0,0.7-0.1,1.9c0,1.3-0.1,2.2-0.1,2.9C501.6,176.2,501.7,178.6,501.8,182L501.8,182z M542.2,157h6.6c0.4,0,0.7,0.1,0.8,0.4
	c0,0.2,0,0.4,0.1,0.7c0,0.2,0.1,0.5,0.1,0.8c0.1,0.3,0.2,0.7,0.3,1.2c0.2,0.5,0.3,1.1,0.5,1.6c0.2,0.5,0.3,1.1,0.5,1.8
	c0.1,0.4,0.3,1,0.5,1.8c1.3,4.8,2.4,8.4,3.3,10.8c0.9,2.4,1.6,4.2,2.2,5.4c0.6,1.2,0.8,1.9,0.8,2.2c0,0.4-0.4,0.5-1.3,0.5h-6.6
	c-0.3,0-0.6-0.3-0.7-0.9c-0.1-0.6-0.4-1.6-0.8-3c-0.2-0.5-0.4-1.2-0.8-2.2c-0.2-0.8-0.5-1.7-0.9-2.6c-2.1,6.3-5.5,9.5-10.2,9.5
	c-1.7,0-3.1-0.4-4.1-1.2c-1-0.8-1.8-1.8-2.2-3c-0.4-1.2-0.6-2.3-0.6-3.4c0-1,0.3-2.1,0.8-3.3c0.5-1.2,1.3-2.3,2.2-3.5
	c0.9-1.2,1.6-2,2.2-2.7c0.6-0.6,1.6-1.6,2.8-2.9c0.6-0.6,1.2-1.3,2-1.9c0.7-0.7,1.2-1.2,1.5-1.5c0.3-0.3,0.4-0.6,0.4-0.9
	c0-0.5-0.2-1.1-0.5-2c-0.1-0.4-0.2-0.8-0.2-1.2C540.9,157.1,541.3,157,542.2,157L542.2,157z M542.7,162.7c-2.5,2.4-4.2,4.6-5.1,6.4
	c-0.9,1.9-1.4,3.3-1.4,4.3c0,1,0.3,1.9,0.9,2.7c0.6,0.8,1.6,1.2,2.9,1.2c1.1,0,2.1-0.3,3-0.8c0.8-0.5,1.5-1.1,1.9-1.9
	c0.4-0.7,0.6-1.4,0.6-2.1c0-0.7-0.3-2.1-1-4.3c-0.4-1.2-0.7-2.1-0.8-2.6C543.5,164.8,543.1,163.7,542.7,162.7L542.7,162.7z
	 M597.8,158.9h-3.9c-0.5,3-0.8,6.2-0.8,9.4c0,2.5,0.1,4.6,0.2,6.3c0.1,1.7,0.3,3.3,0.5,4.8c0.2,1.5,0.3,2.5,0.3,3.1
	c0,0.6-0.1,1.1-0.4,1.3c-0.3,0.3-1,0.4-2.2,0.4h-3.9c-0.6,0-1.1-0.1-1.4-0.4c-0.3-0.3-0.5-0.9-0.7-1.9c-0.2-1-0.3-2.5-0.3-4.5
	c-0.1-2-0.1-4.9-0.1-8.7c0-3.6,0.1-6.3,0.2-7.9c0.1-1.6,0.4-2.7,0.7-3.1c0.3-0.5,0.8-0.7,1.5-0.7c1.2,0,2.1,0,2.7,0.1
	c0.9,0,2.4,0.1,4.6,0.1c3,0,6.9-0.1,11.7-0.3c1,0,1.7,0.1,2.2,0.2c0.5,0.1,0.8,0.5,0.8,1c0,0.6-0.4,1.4-1.1,2.6
	c-0.5,0.8-0.9,1.6-1.2,2.3c-0.4,0.8-0.8,1.6-1.1,2.5c-0.2,0.8-0.5,1.3-0.6,1.8l-2.7-0.2c0.3-1.4,0.4-2.4,0.4-3c0-1.6-0.3-2.8-1-3.7
	C601.7,159.3,600.1,158.9,597.8,158.9L597.8,158.9z M622,179.9c0,0.2,0.1,0.8,0.3,2c0.4,2.7,0.6,5.8,0.6,9.4c0,2.9-0.4,5-1.1,6.1
	c-0.7,1.1-1.7,1.7-3,1.7c-0.9,0-1.4-0.2-1.5-0.6v-0.4c0-0.7,0.1-2.3,0.1-4.8c0-2.6-0.1-5.2-0.3-7.8c-0.2-1.6-0.4-3.4-0.6-5.5
	c-0.2-2.1-0.4-3.7-0.5-4.7c-0.1-1.1-0.1-2.2-0.1-3.5c0-3.2,0.7-6.1,2.2-8.7c1.5-2.6,3.2-4.6,5.2-6c2-1.5,3.6-2.2,4.7-2.2
	c1,0,2.2,0.5,3.5,1.5c1.3,1,2.6,2.3,3.8,4c1.2,1.7,2.2,3.7,3,5.9c0.8,2.2,1.2,4.5,1.2,6.9c0,2.3-0.4,4.3-1.2,6.1
	c-0.8,1.8-1.9,3.2-3.2,4.2c-1.4,1-2.9,1.5-4.6,1.5c-1.6,0-3.2-0.5-4.8-1.5C624.1,182.5,622.8,181.3,622,179.9L622,179.9z
	 M623.8,160.4c-1,1.4-1.7,2.7-2.1,4.1c-0.4,1.4-0.6,3-0.6,5c0,2.3,0.5,4.4,1.3,6.2c0.9,1.8,2,3.2,3.2,4.2c1.3,1,2.4,1.5,3.5,1.5
	c0.8,0,1.5-0.3,2.2-1c0.7-0.7,1.1-1.8,1.3-3.5v-2.2c-0.1-1.5-0.6-3.2-1.4-5.2c-0.8-2-1.9-3.9-3.2-5.5
	C626.8,162.3,625.4,161.1,623.8,160.4L623.8,160.4z M660.1,182.1h2.6c0.6-5.6,1.4-10.5,2.5-14.6c0.5-1.8,1-3.5,1.7-5.1
	c0.6-1.6,1.7-3,3-4.3c1.4-1.3,3.2-2,5.3-2c2,0,3,0.4,3,1.2c0,0.3-0.1,0.5-0.2,0.8c-0.1,0.3-0.3,0.6-0.5,1c-0.3,0.4-0.4,0.7-0.5,0.8
	c-0.3,0.6-0.4,1.5-0.4,2.6c0,1,0,1.8-0.1,2.3l-1.5,0.1c-0.3-1-1.2-1.5-2.5-1.5c-1.1,0-2.1,0.5-3.2,1.6c-1,1.1-1.9,3.1-2.6,6.2
	c-0.7,3.1-1.1,7.4-1.1,12.9c0,3.6,0.1,5.9,0.2,7c0.1,1.1,0.4,2.2,0.6,3.4c0.3,1.2,0.4,2.5,0.4,4.1c0,0.9-1.9,1.3-5.5,1.3
	c-0.5,0-0.8-0.1-1-0.3c-0.1-0.2-0.2-0.6-0.2-1c0-1.8,0.1-3.3,0.2-4.7c0.1-1.3,0.3-2.6,0.5-3.7c0.2-1.1,0.4-2.2,0.6-3.3
	c0.2-1.4,0.4-2.4,0.4-2.9h-3.7c-1.6,0-2.9,0-3.8,0.1c-1,0.1-1.5,0.1-1.5,0.1c-0.3,0-0.5-0.1-0.5-0.2c-0.1-0.2-0.1-0.5-0.1-1v-1.3
	c-0.1-3-0.6-6.6-1.5-10.8c-0.9-4.3-1.9-7.9-3.2-10.9c-0.5-1.2-0.7-2.1-0.7-2.6c0-0.3,0.2-0.5,0.5-0.5c0.3-0.1,0.9-0.1,1.9-0.1
	c0.6,0,1.6,0.1,2.9,0.1h1.6c0.9,0,1.5,0.1,1.7,0.4c0.3,0.3,0.5,0.9,0.6,2c0,0.1,0.2,0.8,0.5,2c0.1,0.4,0.3,1.2,0.5,2.3
	c0.2,1.1,0.4,2.1,0.6,3c0.3,1.6,0.8,4.1,1.4,7.5c0.6,3.5,0.9,5.8,1,7.1C660,181.4,660,181.7,660.1,182.1L660.1,182.1z M703.1,158.9
	h-9.8c-0.6,3.3-1,6.4-1,9.4c0,4.5,0.3,9.2,1,14.1c0,0.6-0.1,1.1-0.4,1.3c-0.3,0.3-1,0.4-2.1,0.4h-3.8c-0.6,0-1.1-0.1-1.4-0.4
	c-0.3-0.3-0.5-0.9-0.7-1.8c-0.2-0.9-0.3-2.4-0.3-4.4c-0.1-2-0.1-5-0.1-9c0-3.6,0.1-6.2,0.2-7.8c0.2-1.6,0.4-2.7,0.8-3.1
	c0.3-0.5,0.9-0.7,1.5-0.7h20.5c0.5,0,0.9,0,1.2-0.1c0.2,0,0.6-0.1,1-0.1c1,0,1.5,0.3,1.5,1c0,0.4-0.1,1.3-0.4,2.7
	c-0.4,2.6-0.6,5.2-0.6,7.8c0,2,0.1,4.1,0.2,6.1c0.1,2,0.4,4.7,0.8,7.9c0,0.6-0.1,1.1-0.4,1.3c-0.3,0.3-1,0.4-2.2,0.4H705
	c-0.6,0-1.1-0.1-1.4-0.4c-0.3-0.3-0.5-0.9-0.7-1.8c-0.2-0.9-0.3-2.4-0.3-4.5c-0.1-2-0.1-5-0.1-8.9
	C702.6,164.9,702.8,161.7,703.1,158.9L703.1,158.9z M732.9,157h6.6c0.4,0,0.7,0.1,0.8,0.4c0,0.2,0,0.4,0.1,0.7
	c0,0.2,0.1,0.5,0.1,0.8c0.1,0.3,0.2,0.7,0.3,1.2c0.2,0.5,0.3,1.1,0.5,1.6c0.2,0.5,0.3,1.1,0.5,1.8c0.1,0.4,0.3,1,0.5,1.8
	c1.3,4.8,2.4,8.4,3.3,10.8c0.9,2.4,1.6,4.2,2.2,5.4c0.6,1.2,0.8,1.9,0.8,2.2c0,0.4-0.4,0.5-1.3,0.5h-6.6c-0.3,0-0.6-0.3-0.7-0.9
	c-0.1-0.6-0.4-1.6-0.8-3c-0.2-0.5-0.4-1.2-0.8-2.2c-0.2-0.8-0.5-1.7-0.9-2.6c-2.1,6.3-5.5,9.5-10.2,9.5c-1.7,0-3.1-0.4-4.1-1.2
	c-1-0.8-1.8-1.8-2.2-3c-0.4-1.2-0.6-2.3-0.6-3.4c0-1,0.3-2.1,0.8-3.3c0.5-1.2,1.3-2.3,2.2-3.5c0.9-1.2,1.6-2,2.2-2.7
	c0.6-0.6,1.6-1.6,2.8-2.9c0.6-0.6,1.2-1.3,2-1.9c0.7-0.7,1.2-1.2,1.5-1.5c0.3-0.3,0.4-0.6,0.4-0.9c0-0.5-0.2-1.1-0.5-2
	c-0.1-0.4-0.2-0.8-0.2-1.2C731.6,157.1,732,157,732.9,157L732.9,157z M733.4,162.7c-2.5,2.4-4.2,4.6-5.1,6.4
	c-0.9,1.9-1.4,3.3-1.4,4.3c0,1,0.3,1.9,0.9,2.7c0.6,0.8,1.6,1.2,2.9,1.2c1.1,0,2.1-0.3,3-0.8c0.8-0.5,1.5-1.1,1.9-1.9
	c0.4-0.7,0.6-1.4,0.6-2.1c0-0.7-0.3-2.1-1-4.3c-0.4-1.2-0.7-2.1-0.8-2.6C734.1,164.8,733.8,163.7,733.4,162.7z"/>
<g>
	<path class="st3" d="M93.2,242.9v-2.5c2.6,0,4.5-0.5,5.7-1.5c1.2-1,1.8-2.7,1.8-5.1c0-1.6-0.3-2.8-1-3.8c-0.7-1-1.7-1.4-3-1.4
		c-1.5,0-2.6,0.5-3.3,1.6c-0.8,1-1.1,2.2-1.1,3.4c0,0.1,0,0.2,0,0.4c0,0.2,0,0.3,0,0.4c0.1,0.3,0.1,0.6,0.1,0.8
		c0,0.6-0.8,1.1-2.3,1.6c-1.5,0.5-3.1,0.7-4.6,0.7c-0.1,0-0.1-0.3-0.1-1c0-2.2,0.6-4,1.8-5.5c1.2-1.5,2.7-2.6,4.6-3.3
		c1.9-0.7,4-1.1,6.2-1.1c1.8,0,3.4,0.3,5,0.8c1.6,0.5,2.8,1.3,3.8,2.3c1,1.1,1.5,2.4,1.5,4c0,2.6-0.8,4.4-2.5,5.5
		c-1.7,1.1-3.8,1.8-6.5,2.1v0.4c0.4,0.1,0.6,0.1,0.9,0.2c0.2,0,0.4,0.1,0.5,0.1c5.9,0.8,8.9,3.3,8.9,7.5c0,2.3-0.7,4.2-2.1,5.7
		c-1.4,1.4-3.4,2.1-6,2.1c-1.3,0-3-0.4-4.9-1.1c-1.8-0.6-2.9-1-3.3-1.1c-0.4-0.1-0.8-0.2-1.2-0.2c-1.5,0-3.2,0.3-5.1,0.9
		c-1.9,0.6-3.5,1.3-4.8,2l-1.2-1.5c1.7-1.9,3.1-3.3,4.3-4.2c1.2-0.9,2.5-1.4,4.1-1.4c0.5,0,1,0.1,1.4,0.2c0.4,0.1,0.8,0.3,1.1,0.6
		c0.3,0.2,0.7,0.5,1.1,0.8c1.2,0.9,2.7,1.3,4.4,1.3c1.1,0,2.1-0.5,2.9-1.4c0.8-0.9,1.2-2.3,1.2-4.3c0-1.6-0.6-2.9-1.7-3.8
		c-1.1-1-2.5-1.4-4-1.4H93.2L93.2,242.9z M128,227.4h5.9c0.4,0,0.6,0.1,0.7,0.4c0,0.2,0,0.4,0,0.7c0,0.2,0,0.5,0.1,0.8
		c0,0.3,0.1,0.7,0.2,1.2c0.2,0.5,0.3,1.1,0.4,1.6c0.1,0.5,0.3,1.1,0.4,1.8c0.1,0.4,0.3,1,0.5,1.8c1.2,4.8,2.1,8.4,2.9,10.8
		c0.8,2.4,1.4,4.2,1.9,5.4c0.5,1.2,0.7,1.9,0.7,2.2c0,0.4-0.4,0.5-1.2,0.5h-5.9c-0.3,0-0.5-0.3-0.6-0.9c-0.1-0.6-0.3-1.6-0.7-3
		c-0.2-0.5-0.4-1.2-0.7-2.2c-0.2-0.8-0.4-1.7-0.8-2.6c-1.9,6.3-4.9,9.5-9.1,9.5c-1.5,0-2.7-0.4-3.6-1.2c-0.9-0.8-1.6-1.8-1.9-3
		c-0.4-1.2-0.6-2.3-0.6-3.4c0-1,0.3-2.1,0.7-3.3c0.5-1.1,1.1-2.3,1.9-3.4c0.8-1.1,1.5-2,2-2.7c0.5-0.6,1.4-1.6,2.5-2.9
		c0.5-0.6,1.1-1.3,1.8-1.9c0.7-0.7,1.1-1.2,1.3-1.5c0.2-0.3,0.3-0.6,0.3-0.9c0-0.5-0.1-1.1-0.4-2c-0.1-0.4-0.2-0.8-0.2-1.2
		C126.8,227.5,127.2,227.4,128,227.4L128,227.4z M128.4,233.1c-2.2,2.4-3.7,4.6-4.5,6.4c-0.8,1.9-1.2,3.3-1.2,4.2
		c0,1,0.3,1.9,0.8,2.7c0.6,0.8,1.4,1.2,2.6,1.2c1,0,1.9-0.3,2.6-0.8c0.7-0.5,1.3-1.2,1.7-1.9c0.4-0.7,0.6-1.4,0.6-2.1
		c0-0.7-0.3-2.1-0.9-4.3c-0.4-1.2-0.6-2.1-0.7-2.6C129.1,235.2,128.8,234.2,128.4,233.1L128.4,233.1z M165.2,229.4h-8.7
		c-0.6,3.3-0.9,6.4-0.9,9.4c0,4.5,0.3,9.2,0.9,14.1c0,0.6-0.1,1.1-0.4,1.3c-0.2,0.3-0.9,0.4-1.9,0.4H151c-0.6,0-1-0.1-1.2-0.4
		c-0.3-0.3-0.5-0.9-0.6-1.8c-0.2-0.9-0.3-2.4-0.3-4.4c0-2-0.1-5-0.1-9c0-3.6,0.1-6.2,0.2-7.8c0.2-1.6,0.4-2.6,0.7-3.1
		c0.3-0.5,0.8-0.7,1.3-0.7h18.3c0.5,0,0.8,0,1.1-0.1c0.2,0,0.5-0.1,0.9-0.1c0.9,0,1.3,0.3,1.3,1c0,0.4-0.1,1.3-0.3,2.7
		c-0.4,2.6-0.6,5.2-0.6,7.8c0,2,0,4.1,0.1,6.1c0.1,2,0.3,4.7,0.7,7.9c0,0.6-0.1,1.1-0.4,1.3c-0.2,0.3-0.9,0.4-1.9,0.4h-3.3
		c-0.6,0-1-0.1-1.2-0.4c-0.3-0.3-0.5-0.9-0.6-1.8c-0.1-0.9-0.2-2.4-0.3-4.5c0-2-0.1-5-0.1-8.9C164.7,235.3,164.9,232.1,165.2,229.4
		L165.2,229.4z M180.4,242.7c0-3,0.6-5.9,1.9-8.6c1.3-2.7,2.7-4.8,4.4-6.4c1.7-1.6,3-2.4,4-2.4c0.7,0,1.7,0.3,2.9,0.9
		c1.2,0.6,2.4,1.5,3.6,2.6c1.2,1.1,2.2,2.6,3,4.4c0.8,1.8,1.2,3.8,1.2,6.1c0,1.8-0.3,3.6-1,5.6c-0.7,2-1.6,3.9-2.7,5.7
		c-1.1,1.8-2.3,3.2-3.5,4.3c-1.2,1.1-2.3,1.6-3.2,1.6c-1.3,0-2.7-0.7-4.4-2.2c-1.7-1.4-3.1-3.3-4.4-5.4
		C181,246.8,180.4,244.7,180.4,242.7L180.4,242.7z M186.3,231.8c-1.2,1.5-1.8,3.1-1.8,4.7c0,1.6,0.4,3.4,1.2,5.4
		c0.8,2,2.1,3.7,3.8,5.2c1.7,1.5,3.8,2.2,6.3,2.2c0.7-1.3,1-2.7,1-4.3c0-2.1-0.4-4.1-1.3-6.1c-0.9-1.9-2.1-3.5-3.7-4.8
		C190.2,232.8,188.4,232.1,186.3,231.8L186.3,231.8z M214.6,250.3c0,0.2,0.1,0.8,0.2,2c0.3,2.7,0.5,5.8,0.5,9.4c0,2.9-0.3,5-1,6.1
		c-0.6,1.1-1.5,1.7-2.7,1.7c-0.8,0-1.2-0.2-1.3-0.6v-0.4c0-0.7,0.1-2.3,0.1-4.8c0-2.6-0.1-5.2-0.3-7.8c-0.1-1.6-0.3-3.4-0.5-5.5
		c-0.2-2.1-0.3-3.7-0.4-4.7c-0.1-1.1-0.1-2.2-0.1-3.5c0-3.2,0.7-6.1,2-8.7c1.3-2.6,2.9-4.6,4.6-6c1.8-1.5,3.2-2.2,4.2-2.2
		c0.9,0,1.9,0.5,3.1,1.5c1.2,1,2.3,2.3,3.4,4c1.1,1.7,2,3.7,2.7,5.9c0.7,2.2,1.1,4.5,1.1,6.9c0,2.3-0.3,4.3-1,6.1
		c-0.7,1.8-1.7,3.2-2.9,4.2c-1.2,1-2.6,1.5-4.1,1.5c-1.4,0-2.9-0.5-4.3-1.5C216.4,252.9,215.3,251.7,214.6,250.3L214.6,250.3z
		 M216.2,230.8c-0.9,1.4-1.5,2.7-1.9,4.1c-0.4,1.4-0.5,3-0.5,5c0,2.3,0.4,4.4,1.2,6.2c0.8,1.8,1.8,3.2,2.9,4.2
		c1.1,1,2.2,1.5,3.1,1.5c0.7,0,1.4-0.3,2-1c0.6-0.7,1-1.8,1.1-3.5v-2.2c-0.1-1.5-0.5-3.2-1.2-5.2c-0.7-2-1.7-3.9-2.8-5.5
		C218.9,232.7,217.6,231.5,216.2,230.8L216.2,230.8z M248.6,252.5h2.3c0.5-5.6,1.2-10.5,2.2-14.6c0.4-1.8,0.9-3.5,1.5-5.1
		c0.6-1.5,1.5-3,2.7-4.3c1.2-1.3,2.8-2,4.7-2c1.8,0,2.7,0.4,2.7,1.2c0,0.3,0,0.5-0.1,0.8c-0.1,0.3-0.2,0.6-0.5,1
		c-0.2,0.4-0.4,0.7-0.4,0.8c-0.2,0.6-0.4,1.5-0.4,2.6c0,1,0,1.8-0.1,2.3l-1.3,0.1c-0.3-1-1-1.5-2.2-1.5c-1,0-1.9,0.5-2.8,1.6
		c-0.9,1.1-1.7,3.1-2.4,6.2c-0.7,3.1-1,7.4-1,12.9c0,3.6,0.1,5.9,0.2,7c0.1,1.1,0.3,2.2,0.6,3.4c0.3,1.2,0.4,2.5,0.4,4.1
		c0,0.9-1.7,1.3-4.9,1.3c-0.5,0-0.7-0.1-0.9-0.3c-0.1-0.2-0.2-0.6-0.2-1c0-1.8,0.1-3.3,0.2-4.7c0.1-1.3,0.3-2.6,0.4-3.7
		c0.2-1.1,0.3-2.2,0.5-3.3c0.2-1.4,0.3-2.4,0.4-2.9h-3.3c-1.4,0-2.6,0-3.4,0.1c-0.9,0.1-1.3,0.1-1.4,0.1c-0.3,0-0.4-0.1-0.5-0.2
		c-0.1-0.2-0.1-0.5-0.1-1v-1.3c-0.1-3-0.6-6.6-1.4-10.8c-0.8-4.2-1.7-7.9-2.8-10.9c-0.4-1.2-0.6-2.1-0.6-2.6c0-0.3,0.1-0.5,0.4-0.5
		c0.3-0.1,0.8-0.1,1.7-0.1c0.5,0,1.4,0.1,2.5,0.1h1.4c0.8,0,1.3,0.1,1.6,0.4c0.2,0.3,0.4,0.9,0.6,1.9c0,0.1,0.2,0.8,0.4,2
		c0.1,0.4,0.2,1.2,0.4,2.3c0.2,1.1,0.4,2.1,0.6,3c0.3,1.6,0.7,4.1,1.2,7.5c0.5,3.4,0.8,5.8,0.9,7.1
		C248.4,251.8,248.5,252.1,248.6,252.5L248.6,252.5z M277.2,239.8h0.5c4.8-8.7,9.1-13.1,12.9-13.1c0.7,0,1.2,0.1,1.7,0.3
		c0.5,0.2,0.7,0.4,0.7,0.7c0,0.3-0.1,0.8-0.4,1.2c-0.3,0.5-0.6,1-0.8,1.7c-0.2,0.6-0.4,1.7-0.5,3.1c0,0.2,0,0.5,0,0.7
		c0,0.2,0,0.4,0,0.5l-1.5,0.1c-0.5-1.2-1.4-1.8-2.7-1.8c-1,0-2.1,0.5-3.3,1.6c-1.3,1.1-2.3,2.4-3.2,3.9c-0.5,0.7-0.9,1.3-1.2,1.8
		c2.7,0.8,5,1.8,6.8,3c1.8,1.2,3.3,2.6,4.3,3.9c1,1.4,1.7,2.6,2.1,3.8c0.4,1.2,0.6,2.1,0.6,2.8c0,0.5-0.7,0.8-2.1,0.8
		c-0.3,0-0.6-0.1-1.1-0.1c-0.5,0-0.8-0.1-1-0.1c-0.8,0-1.4,0-1.9,0.1c-0.6,0.1-1,0.1-1,0.1c-0.4,0-0.6-0.2-0.8-0.5
		c-0.2-0.3-0.3-1-0.5-2c-0.3-1.6-0.7-3.2-1.4-4.6c-0.7-1.4-1.6-2.6-2.6-3.7c-1.1-1-2.3-1.7-3.6-2.2c0,4.4,0.2,8.1,0.6,11v0.6
		c0,0.7-0.9,1.1-2.7,1.1h-2.7c-0.6,0-1-0.1-1.3-0.4c-0.3-0.3-0.5-0.9-0.6-1.9c-0.1-1-0.2-2.5-0.3-4.5c0-2-0.1-5-0.1-8.8
		c0-3.5,0.1-6.1,0.2-7.8c0.1-1.7,0.4-2.8,0.7-3.2c0.3-0.5,0.7-0.7,1.3-0.7c0.2,0,0.4,0,0.7,0.1c0.3,0.1,0.6,0.1,0.7,0.1
		c0.9,0,1.9-0.1,2.9-0.2h0.6c0.5,0.1,0.7,0.4,0.7,0.9c0,0.4-0.1,1.3-0.3,2.7C277.4,233.5,277.2,236.5,277.2,239.8L277.2,239.8z
		 M310.3,227.4h5.9c0.4,0,0.6,0.1,0.7,0.4c0,0.2,0,0.4,0,0.7c0,0.2,0,0.5,0.1,0.8c0,0.3,0.1,0.7,0.2,1.2c0.2,0.5,0.3,1.1,0.5,1.6
		c0.1,0.5,0.3,1.1,0.4,1.8c0.1,0.4,0.3,1,0.5,1.8c1.2,4.8,2.1,8.4,2.9,10.8c0.8,2.4,1.4,4.2,1.9,5.4c0.5,1.2,0.7,1.9,0.7,2.2
		c0,0.4-0.4,0.5-1.2,0.5h-5.9c-0.3,0-0.5-0.3-0.6-0.9c-0.1-0.6-0.3-1.6-0.7-3c-0.2-0.5-0.4-1.2-0.7-2.2c-0.2-0.8-0.4-1.7-0.8-2.6
		c-1.9,6.3-4.9,9.5-9.1,9.5c-1.5,0-2.7-0.4-3.6-1.2c-0.9-0.8-1.6-1.8-1.9-3c-0.4-1.2-0.6-2.3-0.6-3.4c0-1,0.2-2.1,0.7-3.3
		c0.5-1.1,1.1-2.3,1.9-3.4c0.8-1.1,1.5-2,2-2.7c0.5-0.6,1.4-1.6,2.5-2.9c0.5-0.6,1.1-1.3,1.8-1.9c0.7-0.7,1.1-1.2,1.3-1.5
		c0.2-0.3,0.3-0.6,0.3-0.9c0-0.5-0.1-1.1-0.4-2c-0.1-0.4-0.2-0.8-0.2-1.2C309.1,227.5,309.5,227.4,310.3,227.4L310.3,227.4z
		 M310.7,233.1c-2.2,2.4-3.7,4.6-4.5,6.4c-0.8,1.9-1.2,3.3-1.2,4.2c0,1,0.3,1.9,0.8,2.7c0.6,0.8,1.4,1.2,2.6,1.2
		c1,0,1.9-0.3,2.6-0.8c0.7-0.5,1.3-1.2,1.7-1.9c0.4-0.7,0.6-1.4,0.6-2.1c0-0.7-0.3-2.1-0.9-4.3c-0.4-1.2-0.6-2.1-0.7-2.6
		C311.4,235.2,311.1,234.2,310.7,233.1L310.7,233.1z M351.2,227.4H365c2,0,3.4,0.2,4.2,0.6c0.8,0.4,1.3,1.3,1.3,2.7
		c0,2.2-0.9,3.9-2.7,5.1c-1.8,1.2-4.3,2.4-7.6,3.4v0.3c3.2,0.8,6.2,2.1,9,3.8c2.8,1.8,4.2,4.2,4.2,7.2c0,1.2-0.2,2-0.7,2.6
		c-0.4,0.6-1,0.9-1.7,1.1c-0.7,0.1-1.6,0.2-2.8,0.2h-17.6c-0.5,0-0.9-0.1-1.1-0.4c-0.3-0.3-0.5-0.9-0.6-1.8
		c-0.1-0.9-0.2-2.3-0.2-4.2c0-1.5,0-2.7,0.1-3.6c0.1-5,0.2-8.4,0.3-10.3c0.1-1.9,0.2-3.3,0.3-4.3c0.1-1,0.3-1.7,0.6-2
		C350.2,227.6,350.6,227.4,351.2,227.4L351.2,227.4z M355.8,238.1c1.4,0,2.7-0.3,3.8-1c1.1-0.7,1.9-1.5,2.5-2.5c0.6-1,0.8-2,0.8-2.9
		c0-0.9-0.3-1.5-0.9-1.9c-0.6-0.3-1.5-0.5-2.8-0.5c-0.5,0-1.5,0-3,0.1C356,232.1,355.8,235,355.8,238.1L355.8,238.1z M355.9,252.4
		c0,0,0.5,0,1.4,0.1c0.9,0,1.7,0.1,2.2,0.1c1.4,0,2.5-0.1,3.2-0.2c0.7-0.1,1.3-0.4,1.7-0.9c0.4-0.5,0.6-1.3,0.6-2.3
		c0-1.1-0.4-2.4-1.1-3.8c-0.7-1.4-1.8-2.5-3.2-3.5c-1.4-1-3-1.5-4.9-1.5c0,0,0,0.7-0.1,1.9c0,1.3-0.1,2.2-0.1,2.9
		C355.7,246.6,355.8,249,355.9,252.4L355.9,252.4z M398.1,229.4h-8.7c-0.6,3.3-0.9,6.4-0.9,9.4c0,4.5,0.3,9.2,0.9,14.1
		c0,0.6-0.1,1.1-0.4,1.3c-0.2,0.3-0.9,0.4-1.9,0.4h-3.3c-0.6,0-1-0.1-1.2-0.4c-0.3-0.3-0.5-0.9-0.6-1.8c-0.2-0.9-0.3-2.4-0.3-4.4
		c0-2-0.1-5-0.1-9c0-3.6,0.1-6.2,0.2-7.8c0.2-1.6,0.4-2.6,0.7-3.1c0.3-0.5,0.8-0.7,1.3-0.7h18.3c0.5,0,0.8,0,1.1-0.1
		c0.2,0,0.5-0.1,0.9-0.1c0.9,0,1.3,0.3,1.3,1c0,0.4-0.1,1.3-0.3,2.7c-0.4,2.6-0.6,5.2-0.6,7.8c0,2,0,4.1,0.1,6.1
		c0.1,2,0.3,4.7,0.7,7.9c0,0.6-0.1,1.1-0.4,1.3c-0.3,0.3-0.9,0.4-1.9,0.4h-3.3c-0.6,0-1-0.1-1.2-0.4c-0.3-0.3-0.5-0.9-0.6-1.8
		c-0.1-0.9-0.2-2.4-0.3-4.5c0-2-0.1-5-0.1-8.9C397.5,235.3,397.7,232.1,398.1,229.4L398.1,229.4z M437.6,230l1.5,1.8
		c-2.1,1.4-3.9,2-5.4,2c-1.6,0-3.3-1-5-3c-0.7-0.8-1.2-1.3-1.6-1.7c-0.4-0.3-0.9-0.5-1.4-0.5c-1.8,0-2.9,1.1-3.5,3.4
		c-0.6,2.3-0.9,5.1-1,8.6c0.9-0.7,2.2-1.5,3.8-2.2c1.6-0.8,2.9-1.1,3.9-1.1c0.7,0,1.4,0.1,2.1,0.3c0.7,0.3,1.5,0.7,2.3,1.1
		c0.8,0.5,1.3,0.7,1.7,0.7c0.8,0,1.5-0.3,2.2-0.9l1.2,1.6c-0.9,1.1-2,2.1-3.2,3c-0.6,0.5-1.1,0.8-1.5,1c-0.4,0.2-0.9,0.3-1.5,0.3
		c-0.8,0-1.7-0.3-2.7-1c-1-0.7-1.8-1.1-2.3-1.4c-0.6-0.3-1.2-0.4-1.9-0.4c-1.3,0-2.6,0.6-3.9,1.7c0,3,0.7,5.5,2.2,7.5
		c1.4,2,3.4,3,5.9,3c2.2,0,4.7-1,7.4-3l1.1,1.2c-2.7,3-6.2,4.5-10.4,4.5c-2,0-4-0.4-6.1-1.2c-2.1-0.8-4-2.2-5.5-4.3
		c-1.6-2.1-2.4-4.9-2.6-8.4v-2c0.1-2,0.6-4.1,1.5-6.2c0.9-2.2,2.2-4,4.1-5.6c1.8-1.5,4.1-2.3,6.7-2.3c2.7,0,5.6,1,8.6,2.9
		c0.9,0.7,1.6,1,2.1,1C436.8,230.4,437.2,230.3,437.6,230L437.6,230z M447.7,227.4h13.8c2,0,3.4,0.2,4.2,0.6
		c0.8,0.4,1.3,1.3,1.3,2.7c0,2.2-0.9,3.9-2.7,5.1c-1.8,1.2-4.3,2.4-7.6,3.4v0.3c3.2,0.8,6.2,2.1,9,3.8c2.8,1.8,4.2,4.2,4.2,7.2
		c0,1.2-0.2,2-0.7,2.6c-0.4,0.6-1,0.9-1.7,1.1c-0.7,0.1-1.6,0.2-2.8,0.2h-17.6c-0.5,0-0.9-0.1-1.1-0.4c-0.3-0.3-0.5-0.9-0.6-1.8
		c-0.1-0.9-0.2-2.3-0.2-4.2c0-1.5,0-2.7,0.1-3.6c0.1-5,0.2-8.4,0.3-10.3c0.1-1.9,0.2-3.3,0.3-4.3c0.1-1,0.3-1.7,0.6-2
		C446.7,227.6,447.1,227.4,447.7,227.4L447.7,227.4z M452.3,238.1c1.4,0,2.7-0.3,3.8-1c1.1-0.7,1.9-1.5,2.5-2.5c0.6-1,0.8-2,0.8-2.9
		c0-0.9-0.3-1.5-0.9-1.9c-0.6-0.3-1.5-0.5-2.8-0.5c-0.5,0-1.5,0-3,0.1C452.5,232.1,452.3,235,452.3,238.1L452.3,238.1z M452.4,252.4
		c0,0,0.5,0,1.4,0.1c0.9,0,1.7,0.1,2.2,0.1c1.4,0,2.5-0.1,3.2-0.2c0.7-0.1,1.3-0.4,1.7-0.9c0.4-0.5,0.6-1.3,0.6-2.3
		c0-1.1-0.4-2.4-1.1-3.8c-0.7-1.4-1.8-2.5-3.2-3.5c-1.4-1-3-1.5-4.9-1.5c0,0,0,0.7-0.1,1.9c0,1.3-0.1,2.2-0.1,2.9
		C452.2,246.6,452.3,249,452.4,252.4L452.4,252.4z M494,241.3l-9.3-5.1v3.6c0,3.3,0.1,6.1,0.4,8.3c0.3,2.2,0.4,3.8,0.4,4.7
		c0,0.7-0.2,1.1-0.5,1.4c-0.3,0.2-1.2,0.3-2.6,0.3h-2.7c-0.5,0-0.9-0.2-1.1-0.5c-0.3-0.3-0.4-1-0.6-2.1c-0.1-1.1-0.2-2.6-0.3-4.5
		c0-2-0.1-4.8-0.1-8.4c0-3.7,0.1-6.4,0.2-8c0.1-1.6,0.3-2.6,0.6-3.1c0.3-0.4,0.7-0.6,1.3-0.6c0.2,0,0.5,0,0.9,0.1
		c0.4,0,0.7,0.1,0.8,0.1c0.6,0,1.4-0.1,2.6-0.2h0.6c0.5,0.1,0.7,0.4,0.7,0.9c0,1.2-0.1,1.9-0.2,2.3c-0.2,0.4-0.3,1.5-0.4,3.4
		l9.2,5.1v-2.6c0-2.7,0.1-4.8,0.3-6.1c0.2-1.3,0.4-2.1,0.7-2.5c0.3-0.4,0.7-0.5,1.2-0.5c0.2,0,0.5,0,0.8,0.1c0.3,0,0.7,0.1,0.9,0.1
		c1.2,0,2.1-0.1,2.7-0.2h0.6c0.5,0.1,0.7,0.4,0.7,0.9c0,0.2-0.1,0.7-0.2,1.3c-0.1,0.6-0.3,1.3-0.4,2.1c-0.3,2-0.4,4.4-0.4,7.2
		c0,2.6,0.1,4.7,0.2,6.4c0.1,1.6,0.3,3.2,0.5,4.6c0.2,1.5,0.3,2.5,0.3,3.1c0,0.7-0.2,1.1-0.5,1.4c-0.3,0.2-1.2,0.3-2.5,0.3h-2.7
		c-0.6,0-1-0.1-1.2-0.4c-0.3-0.3-0.5-0.8-0.6-1.6c-0.1-0.8-0.2-1.9-0.2-3.3C494.1,247.8,494.1,245.2,494,241.3L494,241.3z
		 M533.9,230l1.5,1.8c-2.1,1.4-3.9,2-5.4,2c-1.6,0-3.3-1-5-3c-0.7-0.8-1.2-1.3-1.6-1.7c-0.4-0.3-0.9-0.5-1.4-0.5
		c-1.8,0-2.9,1.1-3.5,3.4c-0.6,2.3-0.9,5.1-1,8.6c0.9-0.7,2.2-1.5,3.8-2.2c1.6-0.8,2.9-1.1,3.9-1.1c0.7,0,1.4,0.1,2.1,0.3
		c0.7,0.3,1.5,0.7,2.3,1.1c0.8,0.5,1.3,0.7,1.7,0.7c0.8,0,1.5-0.3,2.2-0.9l1.2,1.6c-0.9,1.1-2,2.1-3.2,3c-0.6,0.5-1.1,0.8-1.5,1
		c-0.4,0.2-0.9,0.3-1.5,0.3c-0.8,0-1.7-0.3-2.7-1c-1-0.7-1.8-1.1-2.3-1.4c-0.6-0.3-1.2-0.4-1.9-0.4c-1.3,0-2.6,0.6-3.9,1.7
		c0,3,0.7,5.5,2.2,7.5c1.4,2,3.4,3,5.9,3c2.2,0,4.7-1,7.4-3l1.1,1.2c-2.7,3-6.2,4.5-10.4,4.5c-2,0-4-0.4-6.1-1.2
		c-2.1-0.8-4-2.2-5.5-4.3c-1.6-2.1-2.4-4.9-2.6-8.4v-2c0.1-2,0.6-4.1,1.5-6.2c0.9-2.2,2.2-4,4.1-5.6c1.8-1.5,4.1-2.3,6.7-2.3
		c2.7,0,5.6,1,8.6,2.9c0.9,0.7,1.6,1,2.1,1C533.1,230.4,533.6,230.3,533.9,230z"/>
	<path class="st3" d="M557.6,241.3l-9.3-5.1v3.6c0,3.3,0.1,6.1,0.4,8.3c0.3,2.2,0.4,3.8,0.4,4.7c0,0.7-0.2,1.1-0.5,1.4
		c-0.3,0.2-1.2,0.3-2.6,0.3h-2.7c-0.5,0-0.9-0.2-1.1-0.5c-0.3-0.3-0.4-1-0.6-2.1c-0.1-1.1-0.2-2.6-0.3-4.5c0-2-0.1-4.8-0.1-8.4
		c0-3.7,0.1-6.4,0.2-8c0.1-1.6,0.3-2.6,0.6-3.1c0.3-0.4,0.7-0.6,1.3-0.6c0.2,0,0.5,0,0.9,0.1c0.4,0,0.7,0.1,0.8,0.1
		c0.6,0,1.4-0.1,2.6-0.2h0.6c0.5,0.1,0.7,0.4,0.7,0.9c0,1.2-0.1,1.9-0.2,2.3c-0.2,0.4-0.3,1.5-0.4,3.4l9.2,5.1v-2.6
		c0-2.7,0.1-4.8,0.3-6.1c0.2-1.3,0.4-2.1,0.7-2.5c0.3-0.4,0.7-0.5,1.2-0.5c0.2,0,0.5,0,0.8,0.1c0.3,0,0.7,0.1,0.9,0.1
		c1.2,0,2.1-0.1,2.7-0.2h0.6c0.5,0.1,0.7,0.4,0.7,0.9c0,0.2-0.1,0.7-0.2,1.3c-0.1,0.6-0.3,1.3-0.4,2.1c-0.3,2-0.4,4.4-0.4,7.2
		c0,2.6,0.1,4.7,0.2,6.4c0.1,1.6,0.3,3.2,0.5,4.6c0.2,1.5,0.3,2.5,0.3,3.1c0,0.7-0.2,1.1-0.5,1.4c-0.3,0.2-1.2,0.3-2.5,0.3h-2.7
		c-0.6,0-1-0.1-1.2-0.4c-0.3-0.3-0.5-0.8-0.6-1.6c-0.1-0.8-0.2-1.9-0.2-3.3C557.7,247.8,557.6,245.2,557.6,241.3L557.6,241.3z
		 M573.1,242.7c0-3,0.6-5.9,1.9-8.6c1.3-2.7,2.7-4.8,4.4-6.4c1.7-1.6,3-2.4,4-2.4c0.7,0,1.7,0.3,2.9,0.9c1.2,0.6,2.4,1.5,3.6,2.6
		c1.2,1.1,2.2,2.6,3,4.4c0.8,1.8,1.2,3.8,1.2,6.1c0,1.8-0.3,3.6-1,5.6c-0.7,2-1.6,3.9-2.7,5.7c-1.1,1.8-2.3,3.2-3.5,4.3
		c-1.2,1.1-2.3,1.6-3.2,1.6c-1.3,0-2.7-0.7-4.4-2.2c-1.7-1.4-3.1-3.3-4.4-5.4C573.7,246.8,573.1,244.7,573.1,242.7L573.1,242.7z
		 M579,231.8c-1.2,1.5-1.8,3.1-1.8,4.7c0,1.6,0.4,3.4,1.2,5.4c0.8,2,2.1,3.7,3.8,5.2c1.7,1.5,3.8,2.2,6.3,2.2c0.7-1.3,1-2.7,1-4.3
		c0-2.1-0.4-4.1-1.3-6.1c-0.9-1.9-2.1-3.5-3.7-4.8C582.9,232.8,581.1,232.1,579,231.8L579,231.8z M618.4,244.9l1.9,1.5
		c-1.3,2.8-2.9,5.1-4.7,7.1c-1.8,2-3.3,3-4.5,3c-0.9,0-1.9-0.5-3-1.5c-1.1-1-2.2-2.4-3.3-4c-1.1-1.7-1.9-3.5-2.6-5.3
		c-0.7-1.9-1-3.6-1-5.2c0-2.2,0.6-4.5,1.7-6.8c1.1-2.4,2.4-4.3,3.9-5.9c1.5-1.6,2.8-2.4,3.8-2.4c0.3,0,1,0.2,2,0.6
		c1,0.4,2.1,0.9,3.2,1.4c1.1,0.6,2.1,1.2,2.8,1.8c0.8,0.6,1.2,1.2,1.2,1.7c0,0.4-0.5,1.1-1.6,2.3c-0.7,0.7-1.1,1.3-1.4,1.6
		c-0.2,0.3-0.4,0.7-0.7,1.1c-0.2,0.4-0.4,0.6-0.5,0.6c-0.2,0-0.6-0.4-1.2-1.3c-0.8-1-1.6-1.9-2.6-2.7c-1-0.8-2.4-1.3-4.2-1.7
		c-0.7,1.4-1,3-1,5.1c0,1.8,0.4,3.6,1.2,5.6c0.8,1.9,1.8,3.6,3.2,5.1c1.3,1.5,2.7,2.5,4.1,3.1c0.9-0.9,1.7-2,2.5-3.2
		c0.1-0.1,0.2-0.3,0.3-0.5C618.1,245.4,618.2,245.2,618.4,244.9L618.4,244.9z M656.8,238.3l-3-0.5c0.5-1.3,0.7-2.4,0.7-3.3
		c0-2.2-0.7-3.6-2.1-4.2c-1.4-0.6-2.9-0.9-4.7-0.9h-1c0,1,0,2,0,3.1c0,1.1,0,1.9,0,2.3c-0.1,1.7-0.1,3-0.1,4c0,2,0,4.6,0.1,8
		c0.1,3.4,0.2,5.5,0.3,6.3c0,0.6-0.1,1-0.4,1.3c-0.3,0.3-0.9,0.4-1.9,0.4h-3.4c-0.6,0-1-0.2-1.2-0.5c-0.2-0.3-0.4-0.9-0.4-1.7
		c0-0.8-0.1-2.3-0.1-4.5c0-0.7,0-1.4,0-2c0-0.7,0-1.2,0-1.6V242c0-2.2,0-4.4,0.1-6.6c0-0.2,0-0.8,0.1-1.9c0-1.1,0.1-2.5,0.1-4.1h-1
		c-4.5,0-6.8,1.7-6.8,5.2c0,0.5,0.2,1.6,0.7,3.3l-3,0.5c-0.8-2.4-1.9-4.8-3.3-6.9c-0.7-1-1-1.9-1-2.6c0-0.6,0.2-1.1,0.5-1.5
		c0.3-0.4,0.7-0.6,1.1-0.6c0.3,0,1.4,0.1,3.3,0.4c1.6,0.2,4,0.3,7.4,0.3h10.7c3.4,0,5.9-0.1,7.4-0.3c1.9-0.3,3-0.4,3.3-0.4
		c0.4,0,0.8,0.2,1.2,0.6c0.3,0.4,0.5,0.9,0.5,1.5c0,0.7-0.3,1.6-1,2.6c-0.8,1.3-1.5,2.4-1.9,3.3
		C657.8,235.6,657.3,236.8,656.8,238.3L656.8,238.3z M675.3,254.5h-2.7c-0.5,0-0.9-0.1-1.1-0.3c-0.2-0.2-0.4-0.5-0.5-1.1
		c-0.1-0.6-0.2-1.6-0.3-3c-0.2-4.4-0.3-8.2-0.3-11.3c0-3.6,0.1-6.2,0.2-7.9c0.2-1.6,0.4-2.7,0.7-3.1c0.3-0.4,0.7-0.7,1.3-0.7
		c0.4,0,0.7,0,1.1,0.1c0.4,0,0.6,0.1,0.9,0.1c0.5,0,1.3-0.1,2.3-0.2h0.6c0.5,0.1,0.7,0.4,0.7,0.9c0,0.3-0.1,0.9-0.3,1.8
		c-0.2,0.8-0.3,1.9-0.5,3.2c-0.1,1.3-0.2,3.2-0.2,5.6c0,3.5,0.1,6.1,0.2,7.7c0.1,1.7,0.4,3.8,0.7,6.4c0,0.7-0.2,1.1-0.5,1.4
		C677.3,254.4,676.5,254.5,675.3,254.5L675.3,254.5z M672.5,216.5h2c0.9,0,1.6,0,2.2,0c0.5,0,0.8,0,0.8,0c0.5,0,0.7,0.3,0.7,0.9
		c0,0.7-0.1,1.6-0.1,2.8c0,1.2,0,2.1,0.1,2.7c0,0.5-0.3,0.9-0.7,0.9h-0.6c-1-0.1-1.8-0.1-2.3-0.1c-0.8,0-1.5,0-2,0
		c-0.4,0-0.7,0-0.9-0.2c-0.2-0.1-0.3-0.4-0.4-0.9c-0.1-0.5-0.1-1.4-0.1-2.6c0-1.6,0.1-2.6,0.3-3
		C671.7,216.7,672.1,216.5,672.5,216.5z"/>
</g>
<rect x="9.8" y="205.5" class="st4" width="739.7" height="5.3"/>
</svg>
